<svg xmlns="http://www.w3.org/2000/svg" width="256" height="256" viewBox="0 0 100 100">
  <defs>
    <linearGradient id="grad" x1="0%" y1="0%" x2="100%" y2="100%">
      <stop offset="0%" stop-color="#f97316"/>
      <stop offset="100%" stop-color="#14b8a6"/>
    </linearGradient>
  </defs>

  <!-- Gradient square -->
  <rect width="100" height="100" rx="20" fill="url(#grad)"/>

  <!-- White book icon -->
  <path
    d="M50 26v48m0-48c-5-3-12-5-18-5s-13 2-18 5v48c5-3 12-5 18-5s13 2 18 5m0-48c5-3 12-5 18-5c6 0 13 2 18 5v48c-5-3-12-5-18-5c-6 0-13 2-18 5"
    stroke="white"
    stroke-width="6"
    stroke-linecap="round"
    stroke-linejoin="round"
    fill="none"
  />
</svg>
